<svg xmlns="http://www.w3.org/2000/svg" viewBox="0 0 64 80" x="0px" y="0px"><path d="M61,30H58.936a9.012,9.012,0,0,0-4.07-6.567L54.054,7.989A.993.993,0,0,0,55,7V3a1,1,0,0,0-1-1H46a1,1,0,0,0-1,1V7a.993.993,0,0,0,.946.989l-.812,15.444A9.012,9.012,0,0,0,41.064,30h-.128a9.012,9.012,0,0,0-4.07-6.567L36.054,7.989A.993.993,0,0,0,37,7V3a1,1,0,0,0-1-1H28a1,1,0,0,0-1,1V7a.993.993,0,0,0,.946.989l-.812,15.444A9.012,9.012,0,0,0,23.064,30h-.128a9.012,9.012,0,0,0-4.07-6.567L18.054,7.989A.993.993,0,0,0,19,7V3a1,1,0,0,0-1-1H10A1,1,0,0,0,9,3V7a.993.993,0,0,0,.946.989L9.134,23.433A9.012,9.012,0,0,0,5.064,30H3a1,1,0,0,0-1,1V61a1,1,0,0,0,1,1H61a1,1,0,0,0,1-1V31A1,1,0,0,0,61,30ZM47,4h6V6H47Zm-.407,20.889a1,1,0,0,0,.511-.821L47.949,8h4.1L52.9,24.068a1,1,0,0,0,.511.821A7.013,7.013,0,0,1,56.924,30H43.076A7.013,7.013,0,0,1,46.593,24.889ZM29,4h6V6H29Zm-.407,20.889a1,1,0,0,0,.511-.821L29.949,8h4.1L34.9,24.068a1,1,0,0,0,.511.821A7.013,7.013,0,0,1,38.924,30H25.076A7.013,7.013,0,0,1,28.593,24.889ZM11,4h6V6H11Zm-.407,20.889a1,1,0,0,0,.511-.821L11.949,8h4.1L16.9,24.068a1,1,0,0,0,.511.821A7.013,7.013,0,0,1,20.924,30H7.076A7.013,7.013,0,0,1,10.593,24.889ZM60,60H4V50H25.556a3.916,3.916,0,0,0,4.795,1.749C29.862,52.93,29.09,54,28,54a1,1,0,0,0,0,2,4.374,4.374,0,0,0,3.782-2.657C32.491,55.657,33.773,58,36,58a1,1,0,0,0,0-2c-1.207,0-2.129-2.283-2.616-4.347A3.957,3.957,0,0,0,38.444,50H60ZM27,48a2,2,0,1,1,2,2A2,2,0,0,1,27,48Zm6,0a2,2,0,1,1,2,2A2,2,0,0,1,33,48Zm27,0H39a3.983,3.983,0,0,0-7-2.618A3.983,3.983,0,0,0,25,48H4V32H60Z"/><path d="M27,42H37a3,3,0,0,0,0-6H27a3,3,0,0,0,0,6Zm0-4H37a1,1,0,0,1,0,2H27a1,1,0,0,1,0-2Z"/><text x="0" y="79" fill="#000000" font-size="5px" font-weight="bold" font-family="'Helvetica Neue', Helvetica, Arial-Unicode, Arial, Sans-serif">Created by iconixar</text><text x="0" y="84" fill="#000000" font-size="5px" font-weight="bold" font-family="'Helvetica Neue', Helvetica, Arial-Unicode, Arial, Sans-serif">from the Noun Project</text></svg>